<svg width="60" height="60" viewBox="0 0 60 60" fill="none" xmlns="http://www.w3.org/2000/svg">
<path d="M40.0741 38.4793C38.6525 38.4793 37.496 37.4783 37.496 36.248C37.496 35.0175 38.6525 34.0165 40.0741 34.0165C41.4956 34.0165 42.6521 35.0175 42.6521 36.248C42.6521 36.8951 43.1769 37.4198 43.824 37.4198C44.4711 37.4198 44.9958 36.8951 44.9958 36.248C44.9958 34.1005 43.3958 32.2949 41.2459 31.8048V31.1953C41.2459 30.5482 40.7212 30.0234 40.0741 30.0234C39.427 30.0234 38.9022 30.5482 38.9022 31.1953V31.8048C36.7524 32.2949 35.1523 34.1005 35.1523 36.248C35.1523 38.7706 37.3602 40.8231 40.0741 40.8231C41.4956 40.8231 42.6521 41.8241 42.6521 43.0545C42.6521 44.285 41.4956 45.286 40.0741 45.286C38.6525 45.286 37.496 44.285 37.496 43.0545C37.496 42.4074 36.9713 41.8827 36.3242 41.8827C35.6771 41.8827 35.1523 42.4074 35.1523 43.0545C35.1523 45.202 36.7524 47.0076 38.9022 47.4977V48.0039C38.9022 48.651 39.427 49.1758 40.0741 49.1758C40.7212 49.1758 41.2459 48.651 41.2459 48.0039V47.4977C43.3958 47.0076 44.9958 45.202 44.9958 43.0545C44.9958 40.5317 42.788 38.4793 40.0741 38.4793Z" fill="#3EA0EB"/>
<path d="M52.9091 31.5091C51.3783 29.1237 49.2216 27.215 46.6722 25.9895C46.0887 25.7089 45.3885 25.9546 45.1082 26.5379C44.8277 27.1213 45.0733 27.8213 45.6566 28.1018C50.0993 30.2374 52.9698 34.8005 52.9698 39.7267C52.9698 41.8347 52.4502 43.9251 51.4674 45.7725C51.1634 46.3438 51.3801 47.0534 51.9515 47.3574C52.1268 47.4507 52.3152 47.495 52.5008 47.495C52.9201 47.495 53.3257 47.2693 53.5364 46.8733C54.699 44.6885 55.3136 42.2172 55.3136 39.7267C55.3136 36.8018 54.4821 33.9601 52.9091 31.5091Z" fill="#3EA0EB"/>
<path d="M41.9148 24.4923L41.8359 24.4922C41.1888 24.4922 40.6641 25.0168 40.6641 25.6641C40.6641 26.3113 41.1888 26.8359 41.8359 26.8359L41.9038 26.836C41.9057 26.836 41.9074 26.836 41.9094 26.836C42.5541 26.836 43.0781 26.315 43.0812 25.6697C43.0841 25.0225 42.5619 24.4954 41.9148 24.4923Z" fill="#3EA0EB"/>
<path d="M34.5006 51.352C30.058 49.2163 27.1875 44.6531 27.1875 39.7268C27.1875 37.6188 27.7071 35.5283 28.69 33.6809C28.9939 33.1096 28.7773 32.3999 28.2059 32.096C27.6347 31.792 26.9248 32.0087 26.6209 32.5801C25.4583 34.765 24.8438 37.2363 24.8438 39.7268C24.8438 42.6518 25.6752 45.4934 27.2482 47.9447C28.779 50.33 30.9357 52.2388 33.4851 53.4645C33.6488 53.5432 33.8218 53.5804 33.9921 53.5804C34.4285 53.5804 34.8473 53.3356 35.0491 52.916C35.3293 52.3327 35.0839 51.6325 34.5006 51.352Z" fill="#3EA0EB"/>
<path d="M38.3209 52.6172L38.2531 52.617C37.6031 52.6158 37.0791 53.136 37.0762 53.7833C37.0731 54.4306 37.5955 54.9577 38.2424 54.9607L38.3209 54.961C38.9679 54.961 39.4926 54.4362 39.4926 53.7891C39.4926 53.142 38.9679 52.6172 38.3209 52.6172Z" fill="#3EA0EB"/>
<path d="M45.3994 20.5275C45.2568 20.1876 45.0821 19.8673 44.8787 19.5703H47.9296C50.9019 19.5703 53.3202 17.152 53.3202 14.1797C53.3202 11.2073 50.9019 8.78905 47.9296 8.78905H38.5452C39.1418 7.92163 39.4921 6.87221 39.4921 5.74218C39.4921 2.76984 37.0738 0.351562 34.1015 0.351562H5.39061C2.41828 0.351562 0 2.76984 0 5.74218C0 8.71452 2.41828 11.1328 5.39061 11.1328H14.775C14.1784 12.0002 13.8281 13.0496 13.8281 14.1797C13.8281 15.3097 14.1783 16.3591 14.775 17.2265H11.7187C8.74639 17.2265 6.32811 19.6448 6.32811 22.6171C6.32811 24.3242 7.12663 25.8475 8.36893 26.8359C7.12663 27.8242 6.32811 29.3476 6.32811 31.0546C6.32811 32.7617 7.12663 34.285 8.36893 35.2734C7.12663 36.2617 6.32811 37.785 6.32811 39.4921C6.32811 41.1992 7.12663 42.7225 8.36893 43.7109C7.12663 44.6992 6.32811 46.2225 6.32811 47.9296C6.32811 50.9019 8.74639 53.3202 11.7187 53.3202H25.5292C29.1674 57.2117 34.3431 59.6484 40.0782 59.6484C51.0631 59.6484 60 50.7115 60 39.7266C60 30.584 53.809 22.8612 45.3994 20.5275ZM47.9296 11.1328C49.6097 11.1328 50.9765 12.4997 50.9765 14.1797C50.9765 15.8597 49.6097 17.2265 47.9296 17.2265H40.4296H19.2187C17.5386 17.2265 16.1718 15.8597 16.1718 14.1797C16.1718 12.4997 17.5386 11.1328 19.2187 11.1328H47.9296ZM5.39061 8.78905C3.7105 8.78905 2.34375 7.42217 2.34375 5.74218C2.34375 4.06218 3.7105 2.69531 5.39061 2.69531H34.1015C35.7816 2.69531 37.1484 4.06218 37.1484 5.74218C37.1484 7.42217 35.7816 8.78905 34.1015 8.78905H5.39061ZM11.7187 19.5703H40.4296C40.9016 19.5703 41.3536 19.68 41.7591 19.8764C41.2048 19.8298 40.6444 19.8048 40.0782 19.8048C34.5768 19.8048 29.5893 22.0464 25.9807 25.664H11.7187C10.0387 25.664 8.67186 24.2971 8.67186 22.6171C8.67186 20.9371 10.0387 19.5703 11.7187 19.5703ZM11.7187 28.0078H23.9783C22.648 29.8304 21.6194 31.8861 20.9662 34.1015H11.7187C10.0386 34.1015 8.67186 32.7347 8.67186 31.0546C8.67186 29.3746 10.0386 28.0078 11.7187 28.0078ZM11.7187 36.4452H20.4281C20.2503 37.5132 20.1563 38.609 20.1563 39.7266C20.1563 40.6812 20.2254 41.6199 20.3558 42.539H11.7187C10.0386 42.539 8.67186 41.1722 8.67186 39.4921C8.67186 37.812 10.0386 36.4452 11.7187 36.4452ZM11.7187 50.9765C10.0386 50.9765 8.67186 49.6097 8.67186 47.9296C8.67186 46.2495 10.0386 44.8827 11.7187 44.8827H20.8343C21.4256 47.0874 22.3862 49.142 23.6459 50.9765H11.7187ZM40.0782 57.3047C30.3856 57.3047 22.5001 49.4192 22.5001 39.7266C22.5001 30.034 30.3856 22.1485 40.0782 22.1485C49.7707 22.1485 57.6563 30.034 57.6563 39.7266C57.6563 49.4192 49.7707 57.3047 40.0782 57.3047Z" fill="#3EA0EB"/>
</svg>
