<svg width="60" height="60" viewBox="0 0 60 60" fill="none" xmlns="http://www.w3.org/2000/svg">
<path d="M16.0509 37.7619C16.6112 37.4387 16.803 36.7214 16.4799 36.161C16.1562 35.6012 15.4394 35.4089 14.8791 35.7321C14.3188 36.0558 14.1265 36.7731 14.4501 37.3329C14.7733 37.8932 15.4906 38.0855 16.0509 37.7619Z" fill="#3EA0EB"/>
<path d="M11.2481 45.8501L17.1496 56.0724C18.4231 58.2806 21.2878 59.0982 23.5533 57.7885C25.795 56.4931 26.5654 53.6288 25.2685 51.3853L21.7529 45.2953L24.7975 43.5374C25.3578 43.2133 25.5501 42.4969 25.2264 41.9366L23.7025 39.2972C23.8843 39.2619 25.079 39.0276 46.1485 34.8944C48.7532 34.753 50.3137 31.9043 48.9981 29.6269L45.1034 22.8813L47.5923 19.1116C47.8367 18.7408 47.8514 18.2643 47.6294 17.8798L45.2856 13.8203C45.0636 13.4358 44.642 13.2106 44.2003 13.2367L39.6918 13.5072L35.3682 6.01822C34.742 4.93332 33.62 4.27643 32.3675 4.26086C32.3524 4.26041 32.3378 4.26041 32.3227 4.26041C31.1123 4.26041 30.0137 4.86282 29.3628 5.88135L14.0542 25.383L4.102 31.1288C0.187664 33.3879 -1.16823 38.4096 1.09953 42.3344C3.17137 45.9233 7.53935 47.3351 11.2481 45.8501ZM23.2393 52.5577C23.8865 53.6774 23.5034 55.1102 22.3805 55.7588C21.254 56.4102 19.8193 56.0101 19.1794 54.901L13.32 44.751L17.3794 42.4072C24.1607 54.1544 23.1303 52.3695 23.2393 52.5577ZM20.581 43.2651L19.4092 41.2354L21.4389 40.0635L22.6108 42.0932L20.581 43.2651ZM43.618 15.6194L45.2376 18.4245L43.7933 20.6117L41.0019 15.7764L43.618 15.6194ZM31.3229 7.16629C31.6374 6.65176 32.1364 6.59866 32.3387 6.60416C32.5387 6.60645 33.0372 6.6687 33.338 7.18964L46.9684 30.7988C47.4124 31.5674 46.8727 32.5337 45.9823 32.5557C45.8226 32.5594 45.7489 32.5882 45.3396 32.6646L30.9215 7.69135C31.224 7.30225 31.263 7.26471 31.3229 7.16629ZM29.3619 9.67804L42.9085 33.1416L22.4638 37.1516L16.2474 26.3846L29.3619 9.67804ZM3.12925 41.1626C2.61473 40.2722 2.34282 39.2615 2.34282 38.2388C2.34282 36.1487 3.46617 34.2023 5.27388 33.1586L14.4076 27.8851L20.267 38.0338L11.1333 43.3076C8.33494 44.9226 4.7447 43.9604 3.12925 41.1626Z" fill="#3EA0EB"/>
<path d="M12.4202 38.5049C12.0965 37.9446 11.3797 37.7523 10.8194 38.0759L8.78965 39.2478C8.23026 39.571 7.51203 39.3783 7.18885 38.8189C6.86521 38.2586 6.14835 38.0663 5.58805 38.39C5.02775 38.7136 4.83549 39.4305 5.15913 39.9908C6.12363 41.6616 8.27512 42.2508 9.96152 41.2775L11.9912 40.1057C12.5516 39.782 12.7438 39.0656 12.4202 38.5049Z" fill="#3EA0EB"/>
<path d="M58.2573 6.76712L51.7273 10.4009C51.1619 10.7158 50.9582 11.4294 51.2732 11.9948C51.5872 12.5597 52.3004 12.7643 52.8671 12.4489L59.3966 8.81516C59.9624 8.50022 60.1657 7.78656 59.8507 7.22122C59.5363 6.65543 58.8226 6.45218 58.2573 6.76712Z" fill="#3EA0EB"/>
<path d="M57.5738 18.9043L53.0461 17.6912C52.4208 17.5237 51.7781 17.8945 51.6105 18.5198C51.443 19.1451 51.8142 19.7873 52.4395 19.9549L56.9677 21.1679C57.5967 21.3369 58.2362 20.9601 58.4028 20.3394C58.5704 19.7141 58.1991 19.0714 57.5738 18.9043Z" fill="#3EA0EB"/>
<path d="M46.1941 2.50951L44.9797 7.0377C44.8122 7.66301 45.1829 8.30525 45.8083 8.47325C46.4331 8.64033 47.0758 8.27046 47.2438 7.6447L48.4578 3.1165C48.6253 2.4912 48.2545 1.8485 47.6292 1.68096C47.0044 1.51342 46.3617 1.8842 46.1941 2.50951Z" fill="#3EA0EB"/>
</svg>
